<?xml version="1.0" standalone="no"?>
<!DOCTYPE svg PUBLIC "-//W3C//DTD SVG 20010904//EN"
 "http://www.w3.org/TR/2001/REC-SVG-20010904/DTD/svg10.dtd">
<svg version="1.0" xmlns="http://www.w3.org/2000/svg"
 width="535.000000pt" height="496.000000pt" viewBox="0 0 535.000000 496.000000"
 preserveAspectRatio="xMidYMid meet">

<g transform="translate(0.000000,496.000000) scale(0.100000,-0.100000)"
fill="#000000" stroke="none">
<path d="M2481 4379 c-781 -82 -1434 -651 -1620 -1411 -39 -161 -52 -270 -52
-448 0 -296 52 -534 176 -795 92 -196 189 -337 340 -494 516 -538 1296 -719
1994 -461 175 64 435 215 551 319 l45 41 -28 25 c-49 43 -90 35 -199 -38 -316
-216 -597 -311 -950 -324 -390 -14 -715 79 -1044 298 -153 102 -352 302 -456
459 -214 321 -310 658 -295 1040 17 422 181 813 468 1114 169 177 303 276 514
377 247 119 468 169 750 169 429 0 822 -148 1143 -432 217 -192 398 -460 487
-723 29 -85 53 -115 91 -115 31 0 74 20 74 36 0 20 -67 207 -104 287 -152 334
-428 638 -752 829 -333 196 -750 287 -1133 247z"/>
<path d="M2450 4128 c-513 -53 -982 -361 -1239 -813 -51 -92 -121 -252 -121
-280 0 -21 68 -20 98 1 12 8 42 57 66 107 150 321 386 566 691 716 134 67 225
99 377 133 145 32 433 32 584 0 611 -132 1050 -575 1181 -1192 27 -130 25
-440 -5 -573 -67 -304 -198 -544 -411 -758 -214 -213 -453 -343 -758 -411
-141 -32 -453 -32 -593 0 -260 58 -468 158 -662 318 -87 72 -114 79 -155 38
l-26 -26 39 -40 c122 -126 396 -290 589 -352 346 -112 683 -110 1030 5 470
156 848 535 1005 1008 48 145 67 236 81 396 25 280 -36 584 -169 848 -253 498
-734 824 -1297 877 -125 11 -184 11 -305 -2z"/>
<path d="M2554 3769 c-157 -12 -175 -21 -136 -69 19 -24 17 -24 227 -20 626
11 1140 -470 1181 -1107 30 -453 -234 -903 -654 -1112 -297 -149 -667 -159
-976 -26 -150 65 -233 122 -361 250 -170 170 -260 324 -315 541 -42 161 -46
408 -10 534 8 27 6 35 -15 56 -25 25 -50 31 -59 15 -20 -32 -39 -190 -39 -321
0 -353 131 -661 383 -904 283 -272 672 -399 1056 -342 468 69 854 389 1012
838 50 140 66 243 66 413 0 117 -5 173 -23 255 -134 625 -701 1049 -1337 999z"/>
<path d="M1824 3080 c-30 -12 -54 -49 -54 -83 0 -24 60 -89 373 -408 371 -378
372 -380 373 -424 3 -85 70 -161 153 -172 110 -15 215 88 198 193 -6 33 1 41
279 323 300 304 306 313 267 360 -10 11 -32 24 -49 27 -29 6 -43 -7 -310 -279
l-279 -284 -72 5 -72 4 -102 107 c-57 58 -222 226 -366 374 -277 281 -279 282
-339 257z"/>
</g>
</svg>
